<svg width="19" height="19" viewBox="0 0 19 19" fill="none" xmlns="http://www.w3.org/2000/svg">
<g clip-path="url(#clip0_979_1705)">
<path fill-rule="evenodd" clip-rule="evenodd" d="M10.7719 1.89734C10.7719 1.56095 10.6383 1.23834 10.4004 1.00047C10.1626 0.762606 9.83995 0.628975 9.50356 0.628975C9.16717 0.628975 8.84455 0.762606 8.60669 1.00047C8.36882 1.23834 8.23519 1.56095 8.23519 1.89734V8.23917H1.89337C1.55697 8.23917 1.23436 8.3728 0.996496 8.61066C0.758631 8.84853 0.625 9.17114 0.625 9.50753C0.625 9.84392 0.758631 10.1665 0.996496 10.4044C1.23436 10.6423 1.55697 10.7759 1.89337 10.7759H8.23519V17.1177C8.23519 17.4541 8.36882 17.7767 8.60669 18.0146C8.84455 18.2525 9.16717 18.3861 9.50356 18.3861C9.83995 18.3861 10.1626 18.2525 10.4004 18.0146C10.6383 17.7767 10.7719 17.4541 10.7719 17.1177V10.7759H17.1138C17.4501 10.7759 17.7728 10.6423 18.0106 10.4044C18.2485 10.1665 18.3821 9.84392 18.3821 9.50753C18.3821 9.17114 18.2485 8.84853 18.0106 8.61066C17.7728 8.3728 17.4501 8.23917 17.1138 8.23917H10.7719V1.89734Z" fill="white"/>
</g>
<defs>
<clipPath id="clip0_979_1705">
<rect width="17.7571" height="17.7571" fill="white" transform="translate(0.621338 0.621445)"/>
</clipPath>
</defs>
</svg>
